<?xml version="1.0" encoding="UTF-8" standalone="no"?>
<!-- Created with Inkscape (http://www.inkscape.org/) -->

<svg
   xmlns:dc="http://purl.org/dc/elements/1.1/"
   xmlns:cc="http://creativecommons.org/ns#"
   xmlns:rdf="http://www.w3.org/1999/02/22-rdf-syntax-ns#"
   xmlns:svg="http://www.w3.org/2000/svg"
   xmlns="http://www.w3.org/2000/svg"
   version="1.1"
   width="769.00354"
   height="223.10001"
   viewBox="0 0 769.00355 223.10001"
   id="LOGO_LAYER"
   xml:space="preserve"><metadata
     id="metadata21"><rdf:RDF><cc:Work
         rdf:about=""><dc:format>image/svg+xml</dc:format><dc:type
           rdf:resource="http://purl.org/dc/dcmitype/StillImage" /><dc:title></dc:title></cc:Work></rdf:RDF></metadata><defs
     id="defs19" /><path
     d="m 526.8,86.600007 c 0,12.7 10.3,22.900003 22.9,22.900003 12.7,0 22.9,-10.300003 22.9,-22.900003 0,-12.7 -10.3,-22.9 -22.9,-22.9 -12.7,0 -22.9,10.3 -22.9,22.9 z"
     id="path3"
     style="fill:#d34442" /><path
     d="m 100.6,106.70001 c 2.8,-1.4 5.7,-3.3 8.7,-5.6 3,-2.300003 5.7,-5.200003 8.1,-8.700003 2.5,-3.5 4.5,-7.5 6.1,-12.3 1.6,-4.7 2.4,-10.1 2.4,-16.2 0,-6.6 -1.1,-12.9 -3.3,-18.7 -2.2,-5.8 -5.4,-11 -9.7,-15.4 -4.3,-4.4 -9.6,-7.9 -16,-10.5 -6.3,-2.5 -13.6,-3.8 -21.8,-3.8 H 0 V 156.50001 h 42.7 v -44.4 h 15.4 l 19.4,44.4 h 48.6 l -25.5,-49.8 z M 78.5,72.300007 c -2.8,1.8 -6.1,2.6 -9.7,2.6 h -26 v -22.1 h 26 c 3.7,0 6.9,0.9 9.7,2.6 2.8,1.8 4.2,4.5 4.2,8.3 0,4 -1.4,6.8 -4.2,8.6 z"
     id="path5"
     style="fill:#ffffff" /><rect
     width="42.700001"
     height="141"
     x="136.7"
     y="15.600006"
     id="rect7"
     style="fill:#ffffff" /><path
     d="m 763.1,56.500007 c -3.9,-8.9 -9.4,-16.6 -16.3,-23 -6.9,-6.4 -15.1,-11.4 -24.5,-14.9 -9.4,-3.5 -19.6,-5.3 -30.4,-5.3 -10.9,0 -21,1.8 -30.4,5.3 -9.4,3.5 -17.6,8.5 -24.5,14.9 -6.9,6.4 -12.3,14.1 -16.3,23 -3.9,8.9 -5.9,18.8 -5.9,29.7 0,10.9 2,20.700003 5.9,29.700003 3.9,9 9.4,16.6 16.3,23 6.9,6.4 15.1,11.4 24.5,14.9 9.4,3.5 19.6,5.3 30.4,5.3 10.8,0 21,-1.8 30.4,-5.3 9.4,-3.5 17.6,-8.5 24.5,-14.9 6.9,-6.4 12.3,-14.1 16.3,-23 3.9,-8.9 5.9,-18.800003 5.9,-29.700003 0.1,-10.9 -1.9,-20.8 -5.9,-29.7 z m -39.8,43.500003 c -1.6,4.3 -3.9,8 -6.9,11.2 -3,3.2 -6.5,5.7 -10.7,7.5 -4.2,1.8 -8.8,2.7 -13.8,2.7 -5.1,0 -9.7,-0.9 -13.8,-2.7 -4.2,-1.8 -7.7,-4.3 -10.7,-7.5 -3,-3.2 -5.2,-6.9 -6.9,-11.2 -1.6,-4.300003 -2.4,-8.900003 -2.4,-13.800003 0,-4.9 0.8,-9.5 2.4,-13.8 1.6,-4.3 3.9,-8 6.9,-11.2 3,-3.2 6.5,-5.7 10.7,-7.5 4.2,-1.8 8.8,-2.7 13.8,-2.7 5.1,0 9.7,0.9 13.8,2.7 4.2,1.8 7.7,4.3 10.7,7.5 3,3.2 5.2,6.9 6.9,11.2 1.6,4.3 2.4,8.9 2.4,13.8 0,4.9 -0.8,9.5 -2.4,13.800003 z"
     id="path9"
     style="fill:#ffffff" /><path
     d="m 330.5,55.900007 c -3.9,-8.7 -9.3,-16.1 -16.2,-22.1 -6.9,-6 -15.1,-10.5 -24.5,-13.6 -9.4,-3.1 -19.7,-4.7 -30.9,-4.7 h -63 V 156.50001 h 63.2 c 11,0 21.2,-1.5 30.6,-4.6 9.4,-3.1 17.6,-7.7 24.5,-13.7 6.9,-6.1 12.3,-13.5 16.2,-22.2 3.9,-8.7 5.8,-18.700003 5.8,-30.000003 0.1,-11.3 -1.9,-21.3 -5.7,-30.1 z m -39.9,42.8 c -1.6,4.000003 -3.8,7.500003 -6.7,10.600003 -2.9,3 -6.4,5.5 -10.7,7.3 -4.2,1.8 -9,2.7 -14.4,2.7 H 238.5 V 52.800007 H 259 c 5.6,0 10.6,0.8 14.9,2.5 4.3,1.7 7.8,4 10.6,7 2.7,3 4.8,6.4 6.2,10.5 1.4,4 2.1,8.4 2.1,13.2 0.2,4.5 -0.6,8.7 -2.2,12.7 z"
     id="path11"
     style="fill:#ffffff" /><path
     d="m 450.5,52.800007 c 4.5,-13.8 11.8,-26.4 21.1,-37.2 H 344.9 V 156.60001 h 125.8 l -9.5,-12.8 c -0.2,-0.3 -0.5,-0.6 -0.7,-1 -1,-1.7 -2,-3.5 -2.9,-5.3 l -0.4,-0.8 c -2.9,-5.6 -5.3,-11.4 -7.1,-17.3 h -62.5 v -15.4 h 58.9 c -0.9,-5.600003 -1.4,-11.300003 -1.4,-17.100003 0,-6.9 0.7,-13.5 1.9,-20.1 h -59.4 v -14 h 62.9 z"
     id="path13"
     style="fill:#ffffff" /><path
     d="m 618.3,136.30001 -28.2,-23.6 c -0.6,-0.6 -1.5,-1 -2.4,-1 -0.1,0 -0.2,0 -0.3,0 -1,0.1 -1.9,0.6 -2.5,1.4 -8.3,11.4 -21.7,18.2 -35.8,18.2 -24.4,0 -44.2,-19.8 -44.2,-44.200003 0,-24.4 19.8,-44.2 44.2,-44.2 14.1,0 27,6.5 35.5,17.8 0.6,0.8 1.5,1.3 2.5,1.4 0.1,0 0.2,0 0.2,0 0.9,0 1.8,-0.4 2.4,-1 l 27.2,-22.9 c 1.6,-1.6 1.7,-4.1 0.3,-5.8 C 600.5,11.800007 575.9,7.0274026e-6 549.5,7.0274026e-6 501.5,7.0274026e-6 462.4,39.100007 462.4,87.100007 c 0,14.000003 3.3,27.400003 9.7,39.900003 l 0.3,0.6 c 0.7,1.4 1.5,2.8 2.4,4.2 1.4,2.2 6.5,8.8 13.3,17.5 1.6,1.6 57.7,71.6 57.7,71.6 0.8,1.4 2.2,2.2 3.8,2.2 1.6,0 3,-0.8 3.8,-2.2 l 65.6,-79.4 c 1,-1.7 0.7,-3.9 -0.7,-5.2 z"
     id="path15"
     style="fill:#ffffff" /></svg>